<?xml version="1.0" encoding="utf-8"?>
<!-- Generator: Adobe Illustrator 24.0.2, SVG Export Plug-In . SVG Version: 6.00 Build 0)  -->
<svg version="1.1" id="Layer_1" xmlns="http://www.w3.org/2000/svg" xmlns:xlink="http://www.w3.org/1999/xlink" x="0px" y="0px"
	 viewBox="0 0 1920 1080" style="enable-background:new 0 0 1920 1080;" xml:space="preserve">
<style type="text/css">
	.st0{fill:#62B2F3;}
	.st1{fill:#030303;}
</style>
<path class="st0" d="M1135.1,544.3c-0.7-14.7,1.5-30.6-0.9-44.9c-22.6,33.9-40.9,74.4-62,110.6c-3.8,8.4-25.4,1.9-34.3,4.3
	c-7.1,0.6-9.6-2-10.8-8.7c-7.1-36.2-12.7-73.1-21.3-108.8c-14.3,36.9-23.5,76.7-36.1,114.5c-1.3,6.1-27.3,1.6-34.5,3
	c-3,0-3.8-1.3-2.9-3.9c18-54,36.6-107.8,53.8-162c2.8-8.9,6-14,17.2-13.1c17.3,1.4,34.8,0.4,52.2,0.3c3,0,4.4,1.1,4.8,4
	c4.5,31.2,8.6,62.5,13.9,93.5c0.6,2.5,2.7,1.1,3.6,0c19.2-31.8,38.1-63.7,57.4-95.5c1-1.7,2.5-2,4.3-2c16.7,0,33.3,0.1,50,0
	c3.5,0,4.6,1.5,4.8,4.6c3.8,49,0,99.2,9.1,147.6c3,12.4,17.4,14.8,10.8,19.5c-6.8,6-14.9,9-23.5,11.4c-18.1,5-42.1-1.8-50-14.4
	C1130.6,586.1,1136.6,564.1,1135.1,544.3z"/>
<path class="st1" d="M313.9,508.5c5.2-58.6,25.6-108.2,61.4-151.9c6.7-8.2,11.2-7.5,19.5-3.6c56.3,27.2,114.5,51.4,170.2,79.5
	c-80.2,28.1-162.1,52.8-242.9,79.6C315.4,515.2,312.3,514.2,313.9,508.5z"/>
<path class="st1" d="M579.6,251.1c2-0.2,3.1,1,3.7,2.7c10.7,29.7,21.4,59.4,32.2,89.1c10,29.9,23.4,59,31.7,89.2
	C568.2,398,490.5,359.9,412,324.6c-2.8-1.3-3.3-2.5-0.7-4.6C458.8,279.9,517.8,256.7,579.6,251.1z"/>
<path class="st1" d="M585.5,801.7c-62-4.9-116.1-25-164.1-61.7c-4.6-3.5-2.9-5.6-1-9.3c29.5-54.7,55.7-112,86.7-165.5
	c29.1,74.8,54.8,151.3,83.3,226.5C593.5,798.9,595.1,804.8,585.5,801.7z"/>
<path class="st1" d="M505.5,486.9c2.9,0.7,1.1,2.3,0.5,3.4c-16.5,31.9-33.1,63.7-49.6,95.6c-21.3,41.2-42.5,82.4-63.7,123.6
	c-1.2,2.3-2.3,3.1-4.6,0.7c-41.2-43.2-67.2-99.3-73.1-158.6C373,524.8,443.3,509.7,505.5,486.9z"/>
<path class="st1" d="M621.4,250.2c18.8-4.1,119.6,25.3,167,59.9c6.7,3.5,6.2,7.3,3,13.4c-29.2,53.3-56.1,110.3-86.1,162"/>
<path class="st1" d="M631.9,801.1c-4-1.4-3.7-6.3-4.9-9.7c-20.1-57.1-43.1-114-61.9-171.2c78.8,33.9,156.4,72.2,234.8,107.4
	c4.3,2,3.7,2.6,0.5,5.2C752.5,772.6,694.2,796.3,631.9,801.1z"/>
<path class="st0" d="M855.5,435.5c0,0,20.8,0.1,31.1,0c3.5,0,4.8,1.1,5.2,4.8c4.7,45.9,9,91.9,15.2,137.7
	c1.7,20,17.4,24.4,12.7,28.7c-26.8,28.8-80.2,8.3-80.2-31.8c-0.4-3-1.6-4.3-4.8-4.2c-14.7,0.2-29.4,0.7-44-0.2
	c-7.8-0.5-10.8,3.5-13.3,9.4c-4.5,10.6-9.1,21.1-13.7,31.7c-1.1,2.5-3.1,2.7-5.5,2.7c-13.4-0.6-27.1,1.2-40.3-0.8
	c31.3-59.3,67.7-116.7,101-175.2C821.8,432.4,855.5,435.5,855.5,435.5z M815.1,551.8c11.5,0.5,24.9,3,23-5.6
	c-2-22.8-1.5-46.2-4.7-68.8c-12.9,22.8-27.1,52.5-40.7,75.2C801.4,552.9,798.9,551.4,815.1,551.8z"/>
<path class="st0" d="M1268.7,492.3c-9.7-1-47-2.8-48.1-10.9c-5.4-17.6,9.2-21.8,19.2-29c10.5-7.6,21.5-14.6,30.5-24.1
	c13.3-12.6,2.7-26.2-13.5-20.8c-11.1,0-18.3,22.3-25.9,6c-9.7-27.3,48.5-35.5,66.1-24.3c15.5,6.6,18,27.8,5.4,40.8
	c-13.1,13.4-30.1,21-45.7,30.8c-3.2,2-9.8,3.3-8.9,5.8c1.1,3.2,7.1,2.1,11.1,2c13.9-0.2,27.8-1,40.4-8.3c2.9-1.7,4.2,0.9,5.1,3
	c5.5,12.4-1.9,23.9-17.3,26.6C1280.4,491.2,1273.7,491.7,1268.7,492.3z"/>
</svg>
